<svg xmlns="http://www.w3.org/2000/svg" xmlns:xlink="http://www.w3.org/1999/xlink" width="321" zoomAndPan="magnify" viewBox="0 0 240.75 141.750002" height="189" preserveAspectRatio="xMidYMid meet" version="1.0"><defs><g/></defs><g fill="#021734" fill-opacity="1"><g transform="translate(76.991182, 101.149882)"><g><path d="M 21.828125 -18.40625 C 21.179688 -17.101562 20.503906 -15.789062 19.796875 -14.46875 C 17.140625 -10.875 14.773438 -6.5625 12.703125 -1.53125 C 12.765625 -1.3125 12.472656 -0.523438 11.828125 0.828125 C 11.578125 1.390625 11.359375 1.578125 11.171875 1.390625 L 11.03125 1.390625 L 10.75 1.53125 C 8.707031 1.28125 7.085938 -1.515625 5.890625 -6.859375 C 3.472656 -18.421875 2.195312 -24.382812 2.0625 -24.75 C 1.925781 -25.125 1.578125 -26.6875 1.015625 -29.4375 C 0.273438 -33.726562 0.523438 -36.570312 1.765625 -37.96875 C 2.753906 -37.9375 3.789062 -37.875 4.875 -37.78125 C 6.007812 -37.375 7.039062 -34.40625 7.96875 -28.875 C 8.28125 -27.082031 9.300781 -21.785156 11.03125 -12.984375 C 13.257812 -18.265625 15.453125 -22.171875 17.609375 -24.703125 C 18.171875 -25.535156 19.347656 -26.863281 21.140625 -28.6875 C 22.929688 -30.507812 24.582031 -29.738281 26.09375 -26.375 C 26.1875 -25.914062 26.28125 -25.40625 26.375 -24.84375 C 26.6875 -23.050781 27.707031 -19.097656 29.4375 -12.984375 C 31.570312 -19.441406 33.765625 -24.675781 36.015625 -28.6875 C 41.328125 -37.0625 44.679688 -40 46.078125 -37.5 C 46.328125 -36.207031 45.644531 -33.40625 44.03125 -29.09375 C 42.425781 -24.78125 40.382812 -20.363281 37.90625 -15.84375 C 35.4375 -11.332031 33.171875 -6.5625 31.109375 -1.53125 C 31.171875 -1.3125 30.875 -0.523438 30.21875 0.828125 C 29.976562 1.390625 29.765625 1.578125 29.578125 1.390625 L 29.4375 1.390625 L 29.15625 1.53125 C 27.113281 1.28125 25.492188 -1.515625 24.296875 -6.859375 C 23.304688 -11.554688 22.484375 -15.40625 21.828125 -18.40625 Z M 21.828125 -18.40625 "/></g></g></g><g fill="#021734" fill-opacity="1"><g transform="translate(124.085316, 101.149882)"><g><path d="M 5.890625 0.28125 C 5.484375 1.175781 5.113281 1.734375 4.78125 1.953125 C 3.96875 2.472656 3.070312 2.425781 2.09375 1.8125 C 0.601562 0.851562 0.0976562 -2.226562 0.578125 -7.4375 C 1.054688 -12.644531 1.804688 -18.4375 2.828125 -24.8125 C 3.847656 -31.195312 5.796875 -35.257812 8.671875 -37 C 10.585938 -38.195312 11.757812 -37.597656 12.1875 -35.203125 C 12.625 -32.804688 11.601562 -26.171875 9.125 -15.296875 C 8.570312 -11.128906 8.019531 -7.757812 7.46875 -5.1875 C 7.09375 -3.488281 6.71875 -2.082031 6.34375 -0.96875 C 6.257812 -0.382812 6.109375 0.03125 5.890625 0.28125 Z M 12.140625 -56.1875 C 13.347656 -56.1875 14.375 -55.773438 15.21875 -54.953125 C 16.070312 -54.140625 16.5 -53.144531 16.5 -51.96875 C 16.5 -50.789062 16.070312 -49.789062 15.21875 -48.96875 C 14.375 -48.15625 13.347656 -47.75 12.140625 -47.75 C 10.941406 -47.75 9.914062 -48.15625 9.0625 -48.96875 C 8.207031 -49.789062 7.78125 -50.789062 7.78125 -51.96875 C 7.78125 -53.144531 8.207031 -54.140625 9.0625 -54.953125 C 9.914062 -55.773438 10.941406 -56.1875 12.140625 -56.1875 Z M 12.140625 -56.1875 "/></g></g></g><g fill="#021734" fill-opacity="1"><g transform="translate(139.057171, 101.149882)"><g><path d="M 3.34375 -24.8125 C 3.34375 -28.757812 5.890625 -31.953125 10.984375 -34.390625 C 16.085938 -36.835938 21.425781 -37.582031 27 -36.625 C 32.582031 -35.664062 35.1875 -34.304688 34.8125 -32.546875 C 34.4375 -30.785156 30.703125 -30.171875 23.609375 -30.703125 C 16.523438 -31.242188 12.800781 -29.757812 12.4375 -26.25 C 12.082031 -22.75 15.632812 -20.523438 23.09375 -19.578125 C 30.5625 -18.640625 33.941406 -15.328125 33.234375 -9.640625 C 32.523438 -3.953125 27.96875 -0.597656 19.5625 0.421875 C 11.15625 1.441406 5.359375 -0.796875 2.171875 -6.296875 C -1.003906 -11.804688 -0.210938 -12.804688 4.546875 -9.296875 C 9.304688 -5.785156 14.109375 -4.21875 18.953125 -4.59375 C 22.578125 -5.144531 24.875 -6.78125 25.84375 -9.5 C 26.8125 -12.21875 23.300781 -14.460938 15.3125 -16.234375 C 7.332031 -18.015625 3.34375 -20.875 3.34375 -24.8125 Z M 3.34375 -24.8125 "/></g></g></g><g fill="#021734" fill-opacity="1"><g transform="translate(173.265312, 101.149882)"><g><path d="M 13.859375 -38.421875 C 15.648438 -38.273438 17.625 -38.21875 19.78125 -38.25 C 21.945312 -38.28125 22.773438 -37.421875 22.265625 -35.671875 C 21.765625 -33.921875 20.382812 -32.890625 18.125 -32.578125 C 15.863281 -32.273438 14.054688 -32.171875 12.703125 -32.265625 C 10.078125 -17.890625 9.785156 -8.972656 11.828125 -5.515625 C 15.222656 -1.960938 15.367188 0.0664062 12.265625 0.578125 C 9.160156 1.085938 6.664062 -0.492188 4.78125 -4.171875 C 3.289062 -9.328125 3.644531 -18.847656 5.84375 -32.734375 C 0.125 -33.316406 -2.5625 -34.226562 -2.21875 -35.46875 C -1.882812 -36.664062 1.125 -37.59375 6.8125 -38.25 C 7.34375 -41.175781 7.820312 -43.164062 8.25 -44.21875 C 9.175781 -49.320312 10.90625 -53.125 13.4375 -55.625 L 15.671875 -56 L 16.546875 -54.703125 C 16.421875 -53.960938 16.253906 -53.21875 16.046875 -52.46875 C 15.546875 -50.40625 14.816406 -45.722656 13.859375 -38.421875 Z M 13.859375 -38.421875 "/></g></g></g><g fill="#021734" fill-opacity="1"><g transform="translate(43.767536, 101.149882)"><g><path d="M 17.296875 -9.640625 C 15.410156 -2.128906 13.769531 2.582031 12.375 4.5 C 10.269531 7.46875 8.203125 7.390625 6.171875 4.265625 C 5.984375 -3.703125 7.460938 -14.660156 10.609375 -28.609375 C 15.460938 -49.097656 19.960938 -60.160156 24.109375 -61.796875 C 26.828125 -62.941406 27.769531 -60.019531 26.9375 -53.03125 Z M 7.328125 -57.9375 C 1.046875 -58.1875 -2.972656 -58.679688 -4.734375 -59.421875 C -7.421875 -60.566406 -7.664062 -62.160156 -5.46875 -64.203125 C 0.863281 -65.617188 9.84375 -66.253906 21.46875 -66.109375 C 38.582031 -65.671875 48.113281 -64.015625 50.0625 -61.140625 C 51.394531 -59.253906 49.203125 -58.066406 43.484375 -57.578125 Z M 7.328125 -57.9375 "/></g></g></g></svg>